<mxfile host="app.diagrams.net" modified="2023-09-23T08:34:59.463Z" agent="Mozilla/5.0 (Windows NT 10.0; Win64; x64) AppleWebKit/537.36 (KHTML, like Gecko) Chrome/112.0.0.0 Safari/537.36" etag="GnxbtDOksV8zEJ4AF1FK" version="21.6.8" type="device">
  <diagram name="Страница — 1" id="o8kjD8jLd8lPkc_qO3lF">
    <mxGraphModel dx="1744" dy="2013" grid="1" gridSize="10" guides="1" tooltips="1" connect="1" arrows="1" fold="1" page="1" pageScale="1" pageWidth="827" pageHeight="1169" math="0" shadow="0">
      <root>
        <mxCell id="0" />
        <mxCell id="1" parent="0" />
        <mxCell id="VRkJQPhruLQGKAglXqk0-1" value="" style="whiteSpace=wrap;html=1;aspect=fixed;" vertex="1" parent="1">
          <mxGeometry x="120" y="-295.5" width="1131" height="1131" as="geometry" />
        </mxCell>
        <mxCell id="VRkJQPhruLQGKAglXqk0-2" value="Пользователь" style="shape=umlActor;verticalLabelPosition=bottom;verticalAlign=top;html=1;outlineConnect=0;" vertex="1" parent="1">
          <mxGeometry x="30" y="120" width="50" height="100" as="geometry" />
        </mxCell>
        <mxCell id="VRkJQPhruLQGKAglXqk0-3" value="" style="ellipse;whiteSpace=wrap;html=1;" vertex="1" parent="1">
          <mxGeometry x="190" y="50" width="100" height="60" as="geometry" />
        </mxCell>
        <mxCell id="VRkJQPhruLQGKAglXqk0-4" value="" style="ellipse;whiteSpace=wrap;html=1;" vertex="1" parent="1">
          <mxGeometry x="190" y="120" width="100" height="60" as="geometry" />
        </mxCell>
        <mxCell id="VRkJQPhruLQGKAglXqk0-5" value="" style="ellipse;whiteSpace=wrap;html=1;" vertex="1" parent="1">
          <mxGeometry x="190" y="190" width="100" height="60" as="geometry" />
        </mxCell>
        <mxCell id="VRkJQPhruLQGKAglXqk0-6" value="" style="ellipse;whiteSpace=wrap;html=1;" vertex="1" parent="1">
          <mxGeometry x="350" y="190" width="100" height="60" as="geometry" />
        </mxCell>
        <mxCell id="VRkJQPhruLQGKAglXqk0-7" value="Регистрация" style="text;html=1;strokeColor=none;fillColor=none;align=center;verticalAlign=middle;whiteSpace=wrap;rounded=0;" vertex="1" parent="1">
          <mxGeometry x="210" y="65" width="60" height="30" as="geometry" />
        </mxCell>
        <mxCell id="VRkJQPhruLQGKAglXqk0-8" value="Авторизация" style="text;html=1;strokeColor=none;fillColor=none;align=center;verticalAlign=middle;whiteSpace=wrap;rounded=0;" vertex="1" parent="1">
          <mxGeometry x="210" y="135" width="60" height="30" as="geometry" />
        </mxCell>
        <mxCell id="VRkJQPhruLQGKAglXqk0-9" value="Выбор товара" style="text;html=1;strokeColor=none;fillColor=none;align=center;verticalAlign=middle;whiteSpace=wrap;rounded=0;" vertex="1" parent="1">
          <mxGeometry x="210" y="205" width="60" height="30" as="geometry" />
        </mxCell>
        <mxCell id="VRkJQPhruLQGKAglXqk0-11" value="" style="ellipse;whiteSpace=wrap;html=1;" vertex="1" parent="1">
          <mxGeometry x="520" y="190" width="100" height="60" as="geometry" />
        </mxCell>
        <mxCell id="VRkJQPhruLQGKAglXqk0-12" value="Выбор категории товара" style="text;html=1;strokeColor=none;fillColor=none;align=center;verticalAlign=middle;whiteSpace=wrap;rounded=0;" vertex="1" parent="1">
          <mxGeometry x="370" y="205" width="60" height="30" as="geometry" />
        </mxCell>
        <mxCell id="VRkJQPhruLQGKAglXqk0-13" value="Добавление товара в корзину" style="text;html=1;strokeColor=none;fillColor=none;align=center;verticalAlign=middle;whiteSpace=wrap;rounded=0;" vertex="1" parent="1">
          <mxGeometry x="540" y="205" width="60" height="30" as="geometry" />
        </mxCell>
        <mxCell id="VRkJQPhruLQGKAglXqk0-14" value="" style="endArrow=classic;html=1;rounded=0;exitX=0.5;exitY=0.5;exitDx=0;exitDy=0;exitPerimeter=0;entryX=0;entryY=0.5;entryDx=0;entryDy=0;" edge="1" parent="1" source="VRkJQPhruLQGKAglXqk0-2" target="VRkJQPhruLQGKAglXqk0-3">
          <mxGeometry width="50" height="50" relative="1" as="geometry">
            <mxPoint x="120" y="140" as="sourcePoint" />
            <mxPoint x="170" y="90" as="targetPoint" />
          </mxGeometry>
        </mxCell>
        <mxCell id="VRkJQPhruLQGKAglXqk0-15" value="" style="endArrow=classic;html=1;rounded=0;exitX=0.5;exitY=0.5;exitDx=0;exitDy=0;exitPerimeter=0;entryX=0;entryY=0.5;entryDx=0;entryDy=0;" edge="1" parent="1" source="VRkJQPhruLQGKAglXqk0-2" target="VRkJQPhruLQGKAglXqk0-4">
          <mxGeometry width="50" height="50" relative="1" as="geometry">
            <mxPoint x="350" y="260" as="sourcePoint" />
            <mxPoint x="400" y="210" as="targetPoint" />
          </mxGeometry>
        </mxCell>
        <mxCell id="VRkJQPhruLQGKAglXqk0-16" value="" style="endArrow=classic;html=1;rounded=0;exitX=0.5;exitY=0.5;exitDx=0;exitDy=0;exitPerimeter=0;entryX=0;entryY=0.5;entryDx=0;entryDy=0;" edge="1" parent="1" source="VRkJQPhruLQGKAglXqk0-2" target="VRkJQPhruLQGKAglXqk0-5">
          <mxGeometry width="50" height="50" relative="1" as="geometry">
            <mxPoint x="350" y="260" as="sourcePoint" />
            <mxPoint x="400" y="210" as="targetPoint" />
          </mxGeometry>
        </mxCell>
        <mxCell id="VRkJQPhruLQGKAglXqk0-17" value="" style="endArrow=none;dashed=1;html=1;rounded=0;exitX=1;exitY=0.5;exitDx=0;exitDy=0;entryX=0;entryY=0.5;entryDx=0;entryDy=0;" edge="1" parent="1" source="VRkJQPhruLQGKAglXqk0-5" target="VRkJQPhruLQGKAglXqk0-6">
          <mxGeometry width="50" height="50" relative="1" as="geometry">
            <mxPoint x="350" y="260" as="sourcePoint" />
            <mxPoint x="400" y="210" as="targetPoint" />
          </mxGeometry>
        </mxCell>
        <mxCell id="VRkJQPhruLQGKAglXqk0-19" value="" style="endArrow=none;dashed=1;html=1;rounded=0;exitX=1;exitY=0.5;exitDx=0;exitDy=0;entryX=0;entryY=0.5;entryDx=0;entryDy=0;" edge="1" parent="1" source="VRkJQPhruLQGKAglXqk0-6" target="VRkJQPhruLQGKAglXqk0-11">
          <mxGeometry width="50" height="50" relative="1" as="geometry">
            <mxPoint x="350" y="260" as="sourcePoint" />
            <mxPoint x="400" y="210" as="targetPoint" />
          </mxGeometry>
        </mxCell>
        <mxCell id="VRkJQPhruLQGKAglXqk0-20" value="&amp;lt;&amp;lt;include&amp;gt;&amp;gt;" style="text;html=1;strokeColor=none;fillColor=none;align=center;verticalAlign=middle;whiteSpace=wrap;rounded=0;" vertex="1" parent="1">
          <mxGeometry x="290" y="190" width="60" height="30" as="geometry" />
        </mxCell>
        <mxCell id="VRkJQPhruLQGKAglXqk0-24" value="&amp;lt;&amp;lt;include&amp;gt;&amp;gt;" style="text;html=1;strokeColor=none;fillColor=none;align=center;verticalAlign=middle;whiteSpace=wrap;rounded=0;" vertex="1" parent="1">
          <mxGeometry x="450" y="190" width="60" height="30" as="geometry" />
        </mxCell>
        <mxCell id="VRkJQPhruLQGKAglXqk0-25" value="" style="ellipse;whiteSpace=wrap;html=1;" vertex="1" parent="1">
          <mxGeometry x="690" y="150" width="100" height="60" as="geometry" />
        </mxCell>
        <mxCell id="VRkJQPhruLQGKAglXqk0-26" value="" style="ellipse;whiteSpace=wrap;html=1;" vertex="1" parent="1">
          <mxGeometry x="690" y="240" width="100" height="60" as="geometry" />
        </mxCell>
        <mxCell id="VRkJQPhruLQGKAglXqk0-27" value="" style="endArrow=none;dashed=1;html=1;rounded=0;exitX=1;exitY=0.5;exitDx=0;exitDy=0;entryX=0;entryY=0.5;entryDx=0;entryDy=0;" edge="1" parent="1" source="VRkJQPhruLQGKAglXqk0-11" target="VRkJQPhruLQGKAglXqk0-25">
          <mxGeometry width="50" height="50" relative="1" as="geometry">
            <mxPoint x="420" y="260" as="sourcePoint" />
            <mxPoint x="470" y="210" as="targetPoint" />
          </mxGeometry>
        </mxCell>
        <mxCell id="VRkJQPhruLQGKAglXqk0-28" value="" style="endArrow=none;dashed=1;html=1;rounded=0;exitX=1;exitY=0.5;exitDx=0;exitDy=0;entryX=0;entryY=0.5;entryDx=0;entryDy=0;" edge="1" parent="1" source="VRkJQPhruLQGKAglXqk0-11" target="VRkJQPhruLQGKAglXqk0-26">
          <mxGeometry width="50" height="50" relative="1" as="geometry">
            <mxPoint x="420" y="260" as="sourcePoint" />
            <mxPoint x="470" y="210" as="targetPoint" />
          </mxGeometry>
        </mxCell>
        <mxCell id="VRkJQPhruLQGKAglXqk0-30" value="&amp;lt;&amp;lt;Extend&amp;gt;&amp;gt;&lt;br&gt;" style="text;html=1;strokeColor=none;fillColor=none;align=center;verticalAlign=middle;whiteSpace=wrap;rounded=0;rotation=-30;" vertex="1" parent="1">
          <mxGeometry x="610" y="165" width="60" height="30" as="geometry" />
        </mxCell>
        <mxCell id="VRkJQPhruLQGKAglXqk0-31" value="&amp;lt;&amp;lt;Extend&amp;gt;&amp;gt;" style="text;html=1;strokeColor=none;fillColor=none;align=center;verticalAlign=middle;whiteSpace=wrap;rounded=0;rotation=39;" vertex="1" parent="1">
          <mxGeometry x="610" y="250" width="60" height="30" as="geometry" />
        </mxCell>
        <mxCell id="VRkJQPhruLQGKAglXqk0-32" value="Удаление товара из корзины" style="text;html=1;strokeColor=none;fillColor=none;align=center;verticalAlign=middle;whiteSpace=wrap;rounded=0;" vertex="1" parent="1">
          <mxGeometry x="710" y="165" width="60" height="30" as="geometry" />
        </mxCell>
        <mxCell id="VRkJQPhruLQGKAglXqk0-33" value="Оформление заказа" style="text;html=1;strokeColor=none;fillColor=none;align=center;verticalAlign=middle;whiteSpace=wrap;rounded=0;" vertex="1" parent="1">
          <mxGeometry x="710" y="255" width="60" height="30" as="geometry" />
        </mxCell>
        <mxCell id="VRkJQPhruLQGKAglXqk0-36" value="" style="ellipse;whiteSpace=wrap;html=1;" vertex="1" parent="1">
          <mxGeometry x="190" y="260" width="100" height="60" as="geometry" />
        </mxCell>
        <mxCell id="VRkJQPhruLQGKAglXqk0-37" value="" style="endArrow=classic;html=1;rounded=0;exitX=0.5;exitY=0.5;exitDx=0;exitDy=0;exitPerimeter=0;entryX=0;entryY=0.5;entryDx=0;entryDy=0;" edge="1" parent="1" source="VRkJQPhruLQGKAglXqk0-2" target="VRkJQPhruLQGKAglXqk0-36">
          <mxGeometry width="50" height="50" relative="1" as="geometry">
            <mxPoint x="420" y="260" as="sourcePoint" />
            <mxPoint x="470" y="210" as="targetPoint" />
          </mxGeometry>
        </mxCell>
        <mxCell id="VRkJQPhruLQGKAglXqk0-38" value="Выбор способа оплаты" style="text;html=1;strokeColor=none;fillColor=none;align=center;verticalAlign=middle;whiteSpace=wrap;rounded=0;" vertex="1" parent="1">
          <mxGeometry x="210" y="275" width="60" height="30" as="geometry" />
        </mxCell>
        <mxCell id="VRkJQPhruLQGKAglXqk0-39" value="" style="ellipse;whiteSpace=wrap;html=1;" vertex="1" parent="1">
          <mxGeometry x="350" y="260" width="100" height="60" as="geometry" />
        </mxCell>
        <mxCell id="VRkJQPhruLQGKAglXqk0-41" value="" style="endArrow=none;dashed=1;html=1;rounded=0;exitX=1;exitY=0.5;exitDx=0;exitDy=0;entryX=0;entryY=0.5;entryDx=0;entryDy=0;" edge="1" parent="1" source="VRkJQPhruLQGKAglXqk0-36" target="VRkJQPhruLQGKAglXqk0-39">
          <mxGeometry width="50" height="50" relative="1" as="geometry">
            <mxPoint x="420" y="260" as="sourcePoint" />
            <mxPoint x="470" y="210" as="targetPoint" />
          </mxGeometry>
        </mxCell>
        <mxCell id="VRkJQPhruLQGKAglXqk0-42" value="Оплата товара" style="text;html=1;strokeColor=none;fillColor=none;align=center;verticalAlign=middle;whiteSpace=wrap;rounded=0;" vertex="1" parent="1">
          <mxGeometry x="370" y="275" width="60" height="30" as="geometry" />
        </mxCell>
        <mxCell id="VRkJQPhruLQGKAglXqk0-43" value="&amp;lt;&amp;lt;include&amp;gt;&amp;gt;" style="text;html=1;strokeColor=none;fillColor=none;align=center;verticalAlign=middle;whiteSpace=wrap;rounded=0;" vertex="1" parent="1">
          <mxGeometry x="290" y="260" width="60" height="30" as="geometry" />
        </mxCell>
        <mxCell id="VRkJQPhruLQGKAglXqk0-44" value="" style="endArrow=none;dashed=1;html=1;rounded=0;exitX=1;exitY=0.5;exitDx=0;exitDy=0;entryX=0;entryY=0.5;entryDx=0;entryDy=0;" edge="1" parent="1" source="VRkJQPhruLQGKAglXqk0-26" target="VRkJQPhruLQGKAglXqk0-45">
          <mxGeometry width="50" height="50" relative="1" as="geometry">
            <mxPoint x="590" y="260" as="sourcePoint" />
            <mxPoint x="640" y="210" as="targetPoint" />
          </mxGeometry>
        </mxCell>
        <mxCell id="VRkJQPhruLQGKAglXqk0-45" value="" style="ellipse;whiteSpace=wrap;html=1;" vertex="1" parent="1">
          <mxGeometry x="850" y="270" width="100" height="60" as="geometry" />
        </mxCell>
        <mxCell id="VRkJQPhruLQGKAglXqk0-49" value="&amp;lt;&amp;lt;Extend&amp;gt;&amp;gt;" style="text;html=1;strokeColor=none;fillColor=none;align=center;verticalAlign=middle;whiteSpace=wrap;rounded=0;rotation=30;" vertex="1" parent="1">
          <mxGeometry x="790" y="260" width="60" height="30" as="geometry" />
        </mxCell>
        <mxCell id="VRkJQPhruLQGKAglXqk0-50" value="Отмена заказа" style="text;html=1;strokeColor=none;fillColor=none;align=center;verticalAlign=middle;whiteSpace=wrap;rounded=0;" vertex="1" parent="1">
          <mxGeometry x="870" y="285" width="60" height="30" as="geometry" />
        </mxCell>
        <mxCell id="VRkJQPhruLQGKAglXqk0-51" value="" style="ellipse;whiteSpace=wrap;html=1;" vertex="1" parent="1">
          <mxGeometry x="190" y="330" width="100" height="60" as="geometry" />
        </mxCell>
        <mxCell id="VRkJQPhruLQGKAglXqk0-52" value="Написать отзыв о товаре" style="text;html=1;strokeColor=none;fillColor=none;align=center;verticalAlign=middle;whiteSpace=wrap;rounded=0;" vertex="1" parent="1">
          <mxGeometry x="210" y="345" width="60" height="30" as="geometry" />
        </mxCell>
        <mxCell id="VRkJQPhruLQGKAglXqk0-54" value="" style="ellipse;whiteSpace=wrap;html=1;" vertex="1" parent="1">
          <mxGeometry x="350" y="330" width="100" height="60" as="geometry" />
        </mxCell>
        <mxCell id="VRkJQPhruLQGKAglXqk0-55" value="" style="endArrow=none;dashed=1;html=1;rounded=0;exitX=1;exitY=0.5;exitDx=0;exitDy=0;entryX=0;entryY=0.5;entryDx=0;entryDy=0;" edge="1" parent="1" source="VRkJQPhruLQGKAglXqk0-51" target="VRkJQPhruLQGKAglXqk0-54">
          <mxGeometry width="50" height="50" relative="1" as="geometry">
            <mxPoint x="500" y="350" as="sourcePoint" />
            <mxPoint x="550" y="300" as="targetPoint" />
          </mxGeometry>
        </mxCell>
        <mxCell id="VRkJQPhruLQGKAglXqk0-56" value="&amp;lt;&amp;lt;Extend&amp;gt;&amp;gt;" style="text;html=1;strokeColor=none;fillColor=none;align=center;verticalAlign=middle;whiteSpace=wrap;rounded=0;" vertex="1" parent="1">
          <mxGeometry x="290" y="330" width="60" height="30" as="geometry" />
        </mxCell>
        <mxCell id="VRkJQPhruLQGKAglXqk0-57" value="Редактирование отзыва" style="text;html=1;strokeColor=none;fillColor=none;align=center;verticalAlign=middle;whiteSpace=wrap;rounded=0;" vertex="1" parent="1">
          <mxGeometry x="370" y="345" width="60" height="30" as="geometry" />
        </mxCell>
        <mxCell id="VRkJQPhruLQGKAglXqk0-58" value="" style="endArrow=classic;html=1;rounded=0;exitX=0.5;exitY=0.5;exitDx=0;exitDy=0;exitPerimeter=0;entryX=0;entryY=0.5;entryDx=0;entryDy=0;" edge="1" parent="1" source="VRkJQPhruLQGKAglXqk0-2" target="VRkJQPhruLQGKAglXqk0-51">
          <mxGeometry width="50" height="50" relative="1" as="geometry">
            <mxPoint x="500" y="300" as="sourcePoint" />
            <mxPoint x="550" y="250" as="targetPoint" />
          </mxGeometry>
        </mxCell>
        <mxCell id="VRkJQPhruLQGKAglXqk0-59" value="" style="ellipse;whiteSpace=wrap;html=1;" vertex="1" parent="1">
          <mxGeometry x="190" y="400" width="100" height="60" as="geometry" />
        </mxCell>
        <mxCell id="VRkJQPhruLQGKAglXqk0-60" value="" style="endArrow=classic;html=1;rounded=0;exitX=0.5;exitY=0.5;exitDx=0;exitDy=0;exitPerimeter=0;entryX=0;entryY=0.5;entryDx=0;entryDy=0;" edge="1" parent="1" source="VRkJQPhruLQGKAglXqk0-2" target="VRkJQPhruLQGKAglXqk0-59">
          <mxGeometry width="50" height="50" relative="1" as="geometry">
            <mxPoint x="500" y="300" as="sourcePoint" />
            <mxPoint x="550" y="250" as="targetPoint" />
          </mxGeometry>
        </mxCell>
        <mxCell id="VRkJQPhruLQGKAglXqk0-61" value="Выйти из аккаунта" style="text;html=1;strokeColor=none;fillColor=none;align=center;verticalAlign=middle;whiteSpace=wrap;rounded=0;" vertex="1" parent="1">
          <mxGeometry x="210" y="415" width="60" height="30" as="geometry" />
        </mxCell>
        <mxCell id="VRkJQPhruLQGKAglXqk0-63" value="Оператор сайта" style="shape=umlActor;verticalLabelPosition=bottom;verticalAlign=top;html=1;outlineConnect=0;" vertex="1" parent="1">
          <mxGeometry x="1310" y="230" width="50" height="100" as="geometry" />
        </mxCell>
        <mxCell id="VRkJQPhruLQGKAglXqk0-65" value="" style="ellipse;whiteSpace=wrap;html=1;" vertex="1" parent="1">
          <mxGeometry x="1080" y="190" width="100" height="60" as="geometry" />
        </mxCell>
        <mxCell id="VRkJQPhruLQGKAglXqk0-66" value="Ведение данных" style="text;html=1;strokeColor=none;fillColor=none;align=center;verticalAlign=middle;whiteSpace=wrap;rounded=0;" vertex="1" parent="1">
          <mxGeometry x="1100" y="205" width="60" height="30" as="geometry" />
        </mxCell>
        <mxCell id="VRkJQPhruLQGKAglXqk0-67" value="" style="endArrow=none;dashed=1;html=1;rounded=0;exitX=0;exitY=0.5;exitDx=0;exitDy=0;entryX=1;entryY=0.5;entryDx=0;entryDy=0;" edge="1" parent="1" source="VRkJQPhruLQGKAglXqk0-65" target="VRkJQPhruLQGKAglXqk0-25">
          <mxGeometry width="50" height="50" relative="1" as="geometry">
            <mxPoint x="1130" y="310" as="sourcePoint" />
            <mxPoint x="1180" y="260" as="targetPoint" />
          </mxGeometry>
        </mxCell>
        <mxCell id="VRkJQPhruLQGKAglXqk0-68" value="" style="endArrow=none;dashed=1;html=1;rounded=0;exitX=0;exitY=0.5;exitDx=0;exitDy=0;entryX=1;entryY=0.5;entryDx=0;entryDy=0;" edge="1" parent="1" source="VRkJQPhruLQGKAglXqk0-65" target="VRkJQPhruLQGKAglXqk0-45">
          <mxGeometry width="50" height="50" relative="1" as="geometry">
            <mxPoint x="1050" y="310" as="sourcePoint" />
            <mxPoint x="1100" y="260" as="targetPoint" />
          </mxGeometry>
        </mxCell>
        <mxCell id="VRkJQPhruLQGKAglXqk0-70" value="&amp;lt;&amp;lt;Extend&amp;gt;&amp;gt;&lt;br&gt;" style="text;html=1;strokeColor=none;fillColor=none;align=center;verticalAlign=middle;whiteSpace=wrap;rounded=0;rotation=-30;" vertex="1" parent="1">
          <mxGeometry x="1000" y="260" width="60" height="30" as="geometry" />
        </mxCell>
        <mxCell id="VRkJQPhruLQGKAglXqk0-71" value="&amp;lt;&amp;lt;Extend&amp;gt;&amp;gt;&lt;br&gt;" style="text;html=1;strokeColor=none;fillColor=none;align=center;verticalAlign=middle;whiteSpace=wrap;rounded=0;rotation=10;" vertex="1" parent="1">
          <mxGeometry x="900" y="165" width="60" height="30" as="geometry" />
        </mxCell>
        <mxCell id="VRkJQPhruLQGKAglXqk0-72" value="" style="endArrow=classic;html=1;rounded=0;exitX=0.5;exitY=0.5;exitDx=0;exitDy=0;exitPerimeter=0;entryX=1;entryY=0.5;entryDx=0;entryDy=0;" edge="1" parent="1" source="VRkJQPhruLQGKAglXqk0-63" target="VRkJQPhruLQGKAglXqk0-65">
          <mxGeometry width="50" height="50" relative="1" as="geometry">
            <mxPoint x="1230" y="350" as="sourcePoint" />
            <mxPoint x="1280" y="300" as="targetPoint" />
          </mxGeometry>
        </mxCell>
        <mxCell id="VRkJQPhruLQGKAglXqk0-75" value="" style="ellipse;whiteSpace=wrap;html=1;" vertex="1" parent="1">
          <mxGeometry x="1080" y="260" width="100" height="60" as="geometry" />
        </mxCell>
        <mxCell id="VRkJQPhruLQGKAglXqk0-80" value="Контроллировать состояние сайта" style="text;html=1;strokeColor=none;fillColor=none;align=center;verticalAlign=middle;whiteSpace=wrap;rounded=0;" vertex="1" parent="1">
          <mxGeometry x="1100" y="275" width="60" height="30" as="geometry" />
        </mxCell>
        <mxCell id="VRkJQPhruLQGKAglXqk0-82" value="" style="ellipse;whiteSpace=wrap;html=1;" vertex="1" parent="1">
          <mxGeometry x="1080" y="330" width="100" height="60" as="geometry" />
        </mxCell>
        <mxCell id="VRkJQPhruLQGKAglXqk0-83" value="Изменять статус заказов" style="text;html=1;strokeColor=none;fillColor=none;align=center;verticalAlign=middle;whiteSpace=wrap;rounded=0;" vertex="1" parent="1">
          <mxGeometry x="1100" y="345" width="60" height="30" as="geometry" />
        </mxCell>
        <mxCell id="VRkJQPhruLQGKAglXqk0-84" value="" style="endArrow=classic;html=1;rounded=0;exitX=0.5;exitY=0.5;exitDx=0;exitDy=0;exitPerimeter=0;entryX=1;entryY=0.5;entryDx=0;entryDy=0;" edge="1" parent="1" source="VRkJQPhruLQGKAglXqk0-63" target="VRkJQPhruLQGKAglXqk0-75">
          <mxGeometry width="50" height="50" relative="1" as="geometry">
            <mxPoint x="1110" y="320" as="sourcePoint" />
            <mxPoint x="1160" y="270" as="targetPoint" />
          </mxGeometry>
        </mxCell>
        <mxCell id="VRkJQPhruLQGKAglXqk0-85" value="" style="endArrow=classic;html=1;rounded=0;exitX=0.5;exitY=0.5;exitDx=0;exitDy=0;exitPerimeter=0;entryX=1;entryY=0.5;entryDx=0;entryDy=0;" edge="1" parent="1" source="VRkJQPhruLQGKAglXqk0-63" target="VRkJQPhruLQGKAglXqk0-82">
          <mxGeometry width="50" height="50" relative="1" as="geometry">
            <mxPoint x="1110" y="320" as="sourcePoint" />
            <mxPoint x="1160" y="270" as="targetPoint" />
          </mxGeometry>
        </mxCell>
        <mxCell id="VRkJQPhruLQGKAglXqk0-86" value="" style="endArrow=none;dashed=1;html=1;rounded=0;exitX=0;exitY=0.5;exitDx=0;exitDy=0;entryX=1;entryY=0.5;entryDx=0;entryDy=0;" edge="1" parent="1" source="VRkJQPhruLQGKAglXqk0-82" target="VRkJQPhruLQGKAglXqk0-45">
          <mxGeometry width="50" height="50" relative="1" as="geometry">
            <mxPoint x="1060" y="340" as="sourcePoint" />
            <mxPoint x="1110" y="290" as="targetPoint" />
          </mxGeometry>
        </mxCell>
        <mxCell id="VRkJQPhruLQGKAglXqk0-87" value="&amp;lt;&amp;lt;Extend&amp;gt;&amp;gt;&lt;br&gt;" style="text;html=1;strokeColor=none;fillColor=none;align=center;verticalAlign=middle;whiteSpace=wrap;rounded=0;rotation=25;" vertex="1" parent="1">
          <mxGeometry x="970" y="330" width="60" height="30" as="geometry" />
        </mxCell>
      </root>
    </mxGraphModel>
  </diagram>
</mxfile>
